# Blender 4.1.1
# www.blender.org
o Curve
v -2.700000 0.000000 2.100000
v 2.700000 0.000000 2.100000
v -2.700000 0.000000 -2.100000
v 2.700000 0.000000 -2.100000
v -2.700000 -0.050000 2.100000
v 2.700000 -0.050000 2.100000
v -2.700000 -0.050000 -2.100000
v 2.700000 -0.050000 -2.100000
vn -0.0000 -1.0000 -0.0000
vn -0.0000 1.0000 -0.0000
vn -0.0000 -0.0000 -1.0000
vn -1.0000 -0.0000 -0.0000
vn 1.0000 -0.0000 -0.0000
vn -0.0000 -0.0000 1.0000
vt 0.000000 0.000000
vt 0.000000 1.000000
vt 1.000000 1.000000
vt 1.000000 0.000000
s 0
f 1/1/1 3/2/1 4/3/1 2/4/1
f 5/1/2 6/4/2 8/3/2 7/2/2
f 1/1/3 2/4/3 6/4/3 5/1/3
f 2/4/4 4/3/4 8/3/4 6/4/4
f 3/2/5 1/1/5 5/1/5 7/2/5
f 4/3/6 3/2/6 7/2/6 8/3/6
o Curve.001
v 2.465501 0.000000 -2.090349
v -2.544797 0.000000 -2.090349
v -2.544797 0.000000 1.924851
v 2.535492 0.000000 1.924851
v 2.535492 0.000000 -2.090349
v 2.465501 0.000000 1.854825
v -2.474806 0.000000 1.854825
v -2.474806 0.000000 -2.020358
v 2.465501 0.000000 -2.020358
v -1.731608 0.000000 -0.228816
v -1.661617 0.000000 -0.228816
v -1.661617 0.000000 0.848106
v -1.731608 0.000000 0.848106
v -0.571849 0.000000 -2.090349
v -0.501858 0.000000 -2.090349
v -0.501858 0.000000 -0.051898
v -0.571849 0.000000 -0.051898
v -0.571849 0.000000 0.909630
v -0.501858 0.000000 0.909630
v -0.501858 0.000000 1.924816
v -0.571849 0.000000 1.924816
v 1.079153 0.000000 0.909630
v 1.149144 0.000000 0.909630
v 1.149144 0.000000 1.924816
v 1.079153 0.000000 1.924816
v 0.876411 0.000000 -1.354386
v 0.946402 0.000000 -1.354386
v 0.946402 0.000000 -0.339200
v 0.876411 0.000000 -0.339200
v -1.467871 0.000000 -1.038509
v -1.467871 0.000000 -0.968518
v -2.544797 0.000000 -0.968518
v -2.544797 0.000000 -1.038509
v 2.535492 0.000000 -0.028227
v 2.535492 0.000000 0.041764
v 1.458566 0.000000 0.041764
v 1.458566 0.000000 -0.028227
v 0.505077 0.000000 0.909630
v 0.505077 0.000000 0.979621
v -0.571850 0.000000 0.979621
v -0.571850 0.000000 0.909630
v 1.915837 0.000000 -1.354422
v 1.915837 0.000000 -1.284430
v 0.876412 0.000000 -1.284430
v 0.876412 0.000000 -1.354422
v 2.465501 0.600000 -2.090349
v -2.544797 0.600000 -2.090349
v -2.544797 0.600000 1.924851
v 2.535492 0.600000 1.924851
v 2.535492 0.600000 -2.090349
v 2.465501 0.600000 1.854825
v -2.474806 0.600000 1.854825
v -2.474806 0.600000 -2.020358
v 2.465501 0.600000 -2.020358
v -1.731608 0.600000 -0.228816
v -1.661617 0.600000 -0.228816
v -1.661617 0.600000 0.848106
v -1.731608 0.600000 0.848106
v -0.571849 0.600000 -2.090349
v -0.501858 0.600000 -2.090349
v -0.501858 0.600000 -0.051898
v -0.571849 0.600000 -0.051898
v -0.571849 0.600000 0.909630
v -0.501858 0.600000 0.909630
v -0.501858 0.600000 1.924816
v -0.571849 0.600000 1.924816
v 1.079153 0.600000 0.909630
v 1.149144 0.600000 0.909630
v 1.149144 0.600000 1.924816
v 1.079153 0.600000 1.924816
v 0.876411 0.600000 -1.354386
v 0.946402 0.600000 -1.354386
v 0.946402 0.600000 -0.339200
v 0.876411 0.600000 -0.339200
v -1.467871 0.600000 -1.038509
v -1.467871 0.600000 -0.968518
v -2.544797 0.600000 -0.968518
v -2.544797 0.600000 -1.038509
v 2.535492 0.600000 -0.028227
v 2.535492 0.600000 0.041764
v 1.458566 0.600000 0.041764
v 1.458566 0.600000 -0.028227
v 0.505077 0.600000 0.909630
v 0.505077 0.600000 0.979621
v -0.571850 0.600000 0.979621
v -0.571850 0.600000 0.909630
v 1.915837 0.600000 -1.354422
v 1.915837 0.600000 -1.284430
v 0.876412 0.600000 -1.284430
v 0.876412 0.600000 -1.354422
vn -0.0000 -1.0000 -0.0000
vn -0.0000 1.0000 -0.0000
vn 1.0000 -0.0000 -0.0000
vn -0.0000 -0.0000 1.0000
vn -0.0000 -0.0000 -1.0000
vn -1.0000 -0.0000 -0.0000
vt 0.250000 0.000000
vt 0.125000 0.000000
vt 0.875000 0.000000
vt 0.000000 0.000000
vt 0.500000 0.000000
vt 1.000000 0.000000
vt 0.375000 0.000000
vt 0.750000 0.000000
vt 0.625000 0.000000
vt 0.333333 0.000000
vt 0.666667 0.000000
s 0
f 11/5/7 10/6/7 16/7/7
f 16/7/7 10/6/7 9/8/7
f 16/7/7 9/8/7 13/9/7
f 16/7/7 13/9/7 17/10/7
f 17/10/7 13/9/7 12/11/7
f 11/5/7 16/7/7 15/12/7
f 14/13/7 17/10/7 12/11/7
f 11/5/7 15/12/7 14/13/7
f 11/5/7 14/13/7 12/11/7
f 21/10/7 18/8/7 19/14/7
f 21/10/7 19/14/7 20/15/7
f 25/10/7 22/8/7 23/14/7
f 25/10/7 23/14/7 24/15/7
f 29/10/7 26/8/7 27/14/7
f 29/10/7 27/14/7 28/15/7
f 33/10/7 30/8/7 31/14/7
f 33/10/7 31/14/7 32/15/7
f 37/10/7 34/8/7 35/14/7
f 37/10/7 35/14/7 36/15/7
f 40/15/7 41/10/7 38/8/7
f 40/15/7 38/8/7 39/14/7
f 44/15/7 45/10/7 42/8/7
f 44/15/7 42/8/7 43/14/7
f 49/10/7 46/8/7 47/14/7
f 48/15/7 49/10/7 47/14/7
f 52/15/7 53/10/7 50/8/7
f 52/15/7 50/8/7 51/14/7
f 56/5/8 61/7/8 55/6/8
f 61/7/8 54/8/8 55/6/8
f 61/7/8 58/9/8 54/8/8
f 61/7/8 62/10/8 58/9/8
f 62/10/8 57/11/8 58/9/8
f 56/5/8 60/12/8 61/7/8
f 59/13/8 57/11/8 62/10/8
f 56/5/8 59/13/8 60/12/8
f 56/5/8 57/11/8 59/13/8
f 66/10/8 64/14/8 63/8/8
f 66/10/8 65/15/8 64/14/8
f 70/10/8 68/14/8 67/8/8
f 70/10/8 69/15/8 68/14/8
f 74/10/8 72/14/8 71/8/8
f 74/10/8 73/15/8 72/14/8
f 78/10/8 76/14/8 75/8/8
f 78/10/8 77/15/8 76/14/8
f 82/10/8 80/14/8 79/8/8
f 82/10/8 81/15/8 80/14/8
f 85/15/8 83/8/8 86/10/8
f 85/15/8 84/14/8 83/8/8
f 89/15/8 87/8/8 90/10/8
f 89/15/8 88/14/8 87/8/8
f 94/10/8 92/14/8 91/8/8
f 93/15/8 92/14/8 94/10/8
f 97/15/8 95/8/8 98/10/8
f 97/15/8 96/14/8 95/8/8
f 20/15/9 19/14/9 64/14/9 65/15/9
f 16/7/10 17/10/10 62/10/10 61/7/10
f 31/14/11 30/8/11 75/8/11 76/14/11
f 50/8/11 53/10/11 98/10/11 95/8/11
f 45/10/12 44/15/12 89/15/12 90/10/12
f 32/15/9 31/14/9 76/14/9 77/15/9
f 21/10/10 20/15/10 65/15/10 66/10/10
f 43/14/9 42/8/9 87/8/9 88/14/9
f 17/10/12 14/13/12 59/13/12 62/10/12
f 22/8/12 25/10/12 70/10/12 67/8/12
f 44/15/10 43/14/10 88/14/10 89/15/10
f 15/12/9 16/7/9 61/7/9 60/12/9
f 33/10/10 32/15/10 77/15/10 78/10/10
f 23/14/11 22/8/11 67/8/11 68/14/11
f 42/8/11 45/10/11 90/10/11 87/8/11
f 13/9/11 9/8/11 54/8/11 58/9/11
f 34/8/12 37/10/12 82/10/12 79/8/12
f 24/15/9 23/14/9 68/14/9 69/15/9
f 35/14/11 34/8/11 79/8/11 80/14/11
f 46/8/11 49/10/11 94/10/11 91/8/11
f 14/13/11 15/12/11 60/12/11 59/13/11
f 36/15/9 35/14/9 80/14/9 81/15/9
f 9/8/11 10/6/11 55/6/11 54/8/11
f 25/10/10 24/15/10 69/15/10 70/10/10
f 47/14/9 46/8/9 91/8/9 92/14/9
f 10/6/12 11/5/12 56/5/12 55/6/12
f 26/8/12 29/10/12 74/10/12 71/8/12
f 48/15/10 47/14/10 92/14/10 93/15/10
f 37/10/10 36/15/10 81/15/10 82/10/10
f 11/5/10 12/11/10 57/11/10 56/5/10
f 27/14/11 26/8/11 71/8/11 72/14/11
f 12/11/9 13/9/9 58/9/9 57/11/9
f 41/10/12 40/15/12 85/15/12 86/10/12
f 28/15/9 27/14/9 72/14/9 73/15/9
f 49/10/12 48/15/12 93/15/12 94/10/12
f 39/14/9 38/8/9 83/8/9 84/14/9
f 53/10/12 52/15/12 97/15/12 98/10/12
f 18/8/12 21/10/12 66/10/12 63/8/12
f 40/15/10 39/14/10 84/14/10 85/15/10
f 29/10/10 28/15/10 73/15/10 74/10/10
f 51/14/9 50/8/9 95/8/9 96/14/9
f 19/14/11 18/8/11 63/8/11 64/14/11
f 38/8/11 41/10/11 86/10/11 83/8/11
f 30/8/12 33/10/12 78/10/12 75/8/12
f 52/15/10 51/14/10 96/14/10 97/15/10
